<svg width="200" height="200" viewBox="-100 -100 200 200" xmlns="http://www.w3.org/2000/svg"><circle id="knob-center" cx="0" cy="0" r="80.0" fill="#CCCCCC"/><path d="M 0.00 -100.00 A 100.00 100.00 0 0 1 21.81 -97.59 " fill="none" stroke="black" stroke-width="2"/><path d="M -21.81 -97.59 A 100.00 100.00 0 0 1 0.00 -100.00 " fill="none" stroke="black" stroke-width="2"/><path d="M 19.63 -87.83 A 90.00 90.00 0 0 1 35.74 -82.60 " fill="none" stroke="black" stroke-width="2"/><line x1="0.00" y1="-100.00" x2="0.00" y2="-90.00" stroke="#000000" stroke-width="2"/><path d="M 58.78 -80.90 A 100.00 100.00 0 0 1 75.01 -66.13 " fill="none" stroke="black" stroke-width="2"/><path d="M 39.71 -91.78 A 100.00 100.00 0 0 1 58.78 -80.90 " fill="none" stroke="black" stroke-width="2"/><path d="M 67.51 -59.52 A 90.00 90.00 0 0 1 77.47 -45.81 " fill="none" stroke="black" stroke-width="2"/><line x1="58.78" y1="-80.90" x2="52.90" y2="-72.81" stroke="#000000" stroke-width="2"/><path d="M 95.11 -30.90 A 100.00 100.00 0 0 1 99.56 -9.41 " fill="none" stroke="black" stroke-width="2"/><path d="M 86.07 -50.90 A 100.00 100.00 0 0 1 95.11 -30.90 " fill="none" stroke="black" stroke-width="2"/><path d="M 89.60 -8.47 A 90.00 90.00 0 0 1 89.60 8.47 " fill="none" stroke="black" stroke-width="2"/><line x1="95.11" y1="-30.90" x2="85.60" y2="-27.81" stroke="#000000" stroke-width="2"/><path d="M 95.11 30.90 A 100.00 100.00 0 0 1 86.07 50.90 " fill="none" stroke="black" stroke-width="2"/><path d="M 99.56 9.41 A 100.00 100.00 0 0 1 95.11 30.90 " fill="none" stroke="black" stroke-width="2"/><path d="M 77.47 45.81 A 90.00 90.00 0 0 1 67.51 59.52 " fill="none" stroke="black" stroke-width="2"/><line x1="95.11" y1="30.90" x2="85.60" y2="27.81" stroke="#000000" stroke-width="2"/><path d="M 58.78 80.90 A 100.00 100.00 0 0 1 39.71 91.78 " fill="none" stroke="black" stroke-width="2"/><path d="M 75.01 66.13 A 100.00 100.00 0 0 1 58.78 80.90 " fill="none" stroke="black" stroke-width="2"/><path d="M 35.74 82.60 A 90.00 90.00 0 0 1 19.63 87.83 " fill="none" stroke="black" stroke-width="2"/><line x1="58.78" y1="80.90" x2="52.90" y2="72.81" stroke="#000000" stroke-width="2"/><path d="M 0.00 100.00 A 100.00 100.00 0 0 1 -21.81 97.59 " fill="none" stroke="black" stroke-width="2"/><path d="M 21.81 97.59 A 100.00 100.00 0 0 1 0.00 100.00 " fill="none" stroke="black" stroke-width="2"/><path d="M -19.63 87.83 A 90.00 90.00 0 0 1 -35.74 82.60 " fill="none" stroke="black" stroke-width="2"/><line x1="0.00" y1="100.00" x2="0.00" y2="90.00" stroke="#000000" stroke-width="2"/><path d="M -58.78 80.90 A 100.00 100.00 0 0 1 -75.01 66.13 " fill="none" stroke="black" stroke-width="2"/><path d="M -39.71 91.78 A 100.00 100.00 0 0 1 -58.78 80.90 " fill="none" stroke="black" stroke-width="2"/><path d="M -67.51 59.52 A 90.00 90.00 0 0 1 -77.47 45.81 " fill="none" stroke="black" stroke-width="2"/><line x1="-58.78" y1="80.90" x2="-52.90" y2="72.81" stroke="#000000" stroke-width="2"/><path d="M -95.11 30.90 A 100.00 100.00 0 0 1 -99.56 9.41 " fill="none" stroke="black" stroke-width="2"/><path d="M -86.07 50.90 A 100.00 100.00 0 0 1 -95.11 30.90 " fill="none" stroke="black" stroke-width="2"/><path d="M -89.60 8.47 A 90.00 90.00 0 0 1 -89.60 -8.47 " fill="none" stroke="black" stroke-width="2"/><line x1="-95.11" y1="30.90" x2="-85.60" y2="27.81" stroke="#000000" stroke-width="2"/><path d="M -95.11 -30.90 A 100.00 100.00 0 0 1 -86.07 -50.90 " fill="none" stroke="black" stroke-width="2"/><path d="M -99.56 -9.41 A 100.00 100.00 0 0 1 -95.11 -30.90 " fill="none" stroke="black" stroke-width="2"/><path d="M -77.47 -45.81 A 90.00 90.00 0 0 1 -67.51 -59.52 " fill="none" stroke="black" stroke-width="2"/><line x1="-95.11" y1="-30.90" x2="-85.60" y2="-27.81" stroke="#000000" stroke-width="2"/><path d="M -58.78 -80.90 A 100.00 100.00 0 0 1 -39.71 -91.78 " fill="none" stroke="black" stroke-width="2"/><path d="M -75.01 -66.13 A 100.00 100.00 0 0 1 -58.78 -80.90 " fill="none" stroke="black" stroke-width="2"/><path d="M -35.74 -82.60 A 90.00 90.00 0 0 1 -19.63 -87.83 " fill="none" stroke="black" stroke-width="2"/><line x1="-58.78" y1="-80.90" x2="-52.90" y2="-72.81" stroke="#000000" stroke-width="2"/><line id="knob-indicator" x1="50" y1="50" x2="50" y2="10" stroke="#000000" stroke-width="5" stroke-linecap="round"/></svg>
